<svg id="Layer_1" data-name="Layer 1" xmlns="http://www.w3.org/2000/svg" viewBox="0 0 145.25 157.3"><defs><style>.cls-1{fill:#010101;fill-rule:evenodd;}</style></defs><path class="cls-1" d="M363.4,484c-16.07-18.09-31.93-36-48-54.07-1.44,2.46-2.56,4.72-4,6.77-5.31,7.76-10.64,15.5-16.12,23.13-1.13,1.58-1.34,2.66-.38,4.43,4.68,8.64,9.08,17.42,13.82,26,1.37,2.5,1.67,4.53-.16,6.78a25.83,25.83,0,0,0-1.77,2.88L283.88,474.1c-2.81,2.45-5.75,4.56-8.12,7.19S271.7,487,269.57,490l-4.22-2.65c4.92-5.54,6.43-12.35,7.78-19.47l-33.87-7.2a59.79,59.79,0,0,1,3.36-5.67c.4-.53,1.66-.56,2.53-.59,10.25-.38,20.49-.78,30.74-1,2.2-.05,3.2-.81,4-2.82a170.08,170.08,0,0,1,14.17-28.9c.54-.85,1-1.74,1.75-3.08l-70.67-15a72.57,72.57,0,0,0,4.31-7.73c1.62-3.9,4.09-5.38,8.42-5.27,6.87.18,13.77-.45,20.65-.58a3.55,3.55,0,0,0,3.52-2.14c1.76-3.25,3.65-6.43,5.55-9.6s4.76-3.8,8.64-1.59,4.78,4.81,2.93,8.27c-.71,1.32-1.45,2.62-2.25,4.07,2.9,0,5.61.09,8.3-.07.52,0,1.07-.95,1.44-1.56,2-3.24,3.82-6.52,5.77-9.76,1.39-2.31,3.5-3.28,6-2.32a15.49,15.49,0,0,1,5.05,3.12,4.53,4.53,0,0,1,.67,5.61c-.68,1.32-1.43,2.61-2.24,4.1,3.79,0,7.35.17,10.87-.13.88-.07,1.78-1.61,2.39-2.64,4.89-8.32,9.59-16.76,14.61-25a48.59,48.59,0,0,1,16-15.8c2.08-1.31,4.54-2.83,7.06-1.33s2.3,4.21,2.18,6.61a50.53,50.53,0,0,1-6.36,22.84q-7.12,12.48-14.45,24.83a3.35,3.35,0,0,0-.09,3.89c1.57,2.68,2.93,5.47,4.54,8.51.88-1.46,1.6-2.74,2.4-4,2-3.07,4.89-3.49,8.56-1.3s4.76,4.82,3,8.09c-2.1,3.82-4.33,7.58-6.54,11.44,1.33,2.44,2.69,4.92,4.24,7.74,1-1.61,1.79-2.95,2.61-4.28,1.88-3,4.59-3.63,8-1.77,4.16,2.22,5.42,4.87,3.64,8.28s-3.77,6.75-5.81,10a3.42,3.42,0,0,0-.14,3.91c3.79,7,7.43,14.12,11.22,21.14a3.32,3.32,0,0,1-.06,3.88C367.56,476.64,365.59,480.24,363.4,484Z" transform="translate(-225.14 -342.68)"/></svg>